<svg xmlns="http://www.w3.org/2000/svg" viewBox="0 0 263.294 184.235"><g id="Capa_6" data-name="Capa 6"><rect x="11.833" y="19.895" width="223.191" height="103.059" style="fill:#1d1d1b"/><path d="M120.068,28.1c-15.058,37.971-3.029,58.029,14.147,87.206H19.951V28.1Z" style="fill:#fff"/><path d="M33.48,42.836C47.362,56.483,72.774,71.307,81.715,74.6s18.118,16.471,23.059,24.941c0,0-9.294-5.441-13.353-7.294s-8.206-.265-10.588,1.588-20.294,6.177-29.118-1.5-9.841-18.223-8.823-29.382C42.892,62.954,32.774,53.778,33.48,42.836Z" style="fill:#1d1d1b"/><path d="M53.813,67.322l4.576,2.542a.988.988,0,0,1,.443,1.23c-.684,1.718-1.84,5.848,1.589,8.272,4.109,2.9,9.238.4,12.347-1a.993.993,0,0,1,1.137.23L78,83a.994.994,0,0,1-.223,1.534c-2.378,1.408-8.971,4.642-12.24,4.6-4.177-.059-10.294-2.883-12.706-7.118-2.252-3.955-2.3-9.3-.427-14.2A.99.99,0,0,1,53.813,67.322Z" style="fill:#fff"/><path d="M176.48,30.13s-19.551,27.991-20.321,45.222a.661.661,0,0,0,1.14.484c3.979-4.2,17.328-17.956,30.3-24.706a176.215,176.215,0,0,1,23.47-10.411L196.6,38.248,201.451,28.1S186.1,35.248,179.3,42.307C179.3,42.307,177.98,33.483,176.48,30.13Z" style="fill:#fff"/><path d="M179.68,83.9a.793.793,0,0,0-.095,1.035,14.659,14.659,0,0,0,11.782,6.078c8.271,0,14.975-7.11,14.975-15.882.014-1.17-.12-3.913-.205-5.524a.792.792,0,0,0-1.167-.654l-7.278,3.9a.792.792,0,0,0-.4.823c.271,1.743.712,7.135-3.749,9.1-4.161,1.829-7.22-1.425-8.376-2.965a.788.788,0,0,0-1.181-.086Z" style="fill:#fff"/><path d="M145.924,126.75H103.416l-1.83,8.873a.987.987,0,0,0,.966,1.186h.093a.986.986,0,0,0,.952-.731l.23-.857h18.912L96.455,161.112a.856.856,0,0,0,.51,1.506l41.8-.265,2.124-8.7a1.192,1.192,0,0,0-1-1.643h0a1.126,1.126,0,0,0-1.053.637l-.655,1.311-17.235.114,25.374-26.22A.637.637,0,0,0,145.924,126.75Z" style="fill:#020304"/><path d="M42.886,126.824l0,.635a8.266,8.266,0,0,1-1.477,4.774l-9.645,13.885-4.011-15.482a7.062,7.062,0,0,1-.206-2.321l.115-1.491H10.474l1.881,2.507a12.292,12.292,0,0,1,2.078,4.341l4.342,19.356a26.377,26.377,0,0,1,.817,6.516v1.4H37.063L59.3,126.824Z" style="fill:#020304"/><path d="M94.005,125.765H68.371c-5.011,0-7.882,2.882-9.073,9.073l-2.063,10.794a2.493,2.493,0,0,0,2.493,2.493l22.6-.228a1.416,1.416,0,0,1,1.431,1.416v1.073a2.526,2.526,0,0,1-2.526,2.526H58.482l.022-1.037H57.043a.525.525,0,0,0-.52.454L55.232,161.8H87.46s6.426-.727,8.235-9.595-1.015-11.338-3.706-11.338-6.529-.089-6.529-.089H75.18a1.632,1.632,0,0,1-1.632-1.632v-1.809a4.632,4.632,0,0,1,4.632-4.632H82.9a2.559,2.559,0,0,1,2.559,2.559v.992H84.416a.368.368,0,0,0-.368.368v.875a.368.368,0,0,0,.368.368H98.327v-.427l.126-7.149A4.448,4.448,0,0,0,94.005,125.765Z" style="fill:#020304"/><path d="M233.063,125.765c-4,0-20.765.294-20.765.294H197.563a.853.853,0,1,0,0,1.706h.733l-6.77,32.353h-1.14a.853.853,0,1,0,0,1.706H205.8a.853.853,0,0,0,0-1.706h-.53l1.5-9.559c-.117,1.529,1.353,4.265,3.824,4.265,1.375,0,7.35.091,12.378.171a9.35,9.35,0,0,0,9.222-7.072c1.553-6.183,3.585-14.308,3.871-15.629C236.533,130.118,237.063,125.765,233.063,125.765Zm-12.04,9.929L218.3,148.941h-9.177l3.1-15.058a4.494,4.494,0,1,1,8.8,1.811Z" style="fill:#020304"/><path d="M187.7,160.206H187.3c-.8-7.161-3.983-35.752-4.291-37.5-.353-2-1.94-1.059-1.94-1.059-2.645,1.647-15.59,6.353-15.59,6.353l-28.8,39.647h8.213l8.171-11.735h16.109l.464,4.294h-.95a.885.885,0,1,0,0,1.769H187.7a.885.885,0,1,0,0-1.769Zm-31.694-8.53,11-15.794,1.705,15.794Z" style="fill:#020304"/></g></svg>